<svg id="Capa_1" enable-background="new 0 0 512 512" height="512" viewBox="0 0 512 512" width="512" xmlns="http://www.w3.org/2000/svg"><g><g><g><g><path d="m343.24 66.58h22.541c1.43 0 2.589 1.159 2.589 2.589v138.002h40.127v-138.002c0-1.43 1.159-2.589 2.589-2.589h21.732c2.112 0 3.336-2.394 2.098-4.106l-44.402-61.402c-1.028-1.422-3.143-1.431-4.183-.017l-45.176 61.403c-1.258 1.709-.037 4.122 2.085 4.122z" fill="#05e39c"/></g></g><path d="m451.469 234.861v-17.479c0-6.2-5.026-11.225-11.225-11.225h-118.988c-6.2 0-11.225 5.026-11.225 11.225v17.479c0 6.2 5.026 11.225 11.225 11.225-6.2 0-11.225 5.026-11.225 11.225v17.479c0 6.2 5.026 11.225 11.225 11.225-6.2 0-11.225 5.026-11.225 11.225v17.479c0 6.2 5.026 11.225 11.225 11.225-1.646 0-3.205.363-4.613 1h.863c5.639 0 10.226 4.587 10.226 10.226v17.479c0 5.639-4.587 10.226-10.226 10.226v2c5.639 0 10.226 4.587 10.226 10.225v17.479c0 5.639-4.587 10.226-10.226 10.226v2c5.639 0 10.226 4.587 10.226 10.225v17.479c0 5.639-4.587 10.226-10.226 10.226v2c5.639 0 10.226 4.587 10.226 10.226v17.479c0 5.639-4.587 10.226-10.226 10.226v.345c1.174.417 2.433.655 3.75.655h118.988c6.2 0 11.225-5.026 11.225-11.225v-17.479c0-6.2-5.026-11.225-11.225-11.225 6.2 0 11.225-5.026 11.225-11.225v-17.479c0-6.2-5.026-11.225-11.225-11.225 6.2 0 11.225-5.026 11.225-11.225v-17.479c0-6.2-5.026-11.225-11.225-11.225 6.2 0 11.225-5.026 11.225-11.225v-17.479c0-6.2-5.026-11.225-11.225-11.225 6.2 0 11.225-5.026 11.225-11.225v-17.479c0-6.2-5.026-11.225-11.225-11.225 6.2 0 11.225-5.026 11.225-11.225v-17.479c0-6.2-5.026-11.225-11.225-11.225 6.199-.006 11.225-5.032 11.225-11.231z" fill="#fedf30"/><path d="m440.244 325.946h-118.988c-1.646 0-3.205.363-4.613 1h.863c5.639 0 10.226 4.587 10.226 10.226v17.479c0 5.639-4.587 10.226-10.226 10.226v.344c1.174.417 2.433.655 3.75.655h118.988c6.2 0 11.225-5.026 11.225-11.225v-17.479c0-6.201-5.026-11.226-11.225-11.226z" fill="#fac600"/><path d="m352.123 354.65v-17.479c0-6.2 5.026-11.225 11.225-11.225h-42.093c-1.646 0-3.205.363-4.613 1h.863c5.639 0 10.226 4.587 10.226 10.226v17.479c0 5.639-4.587 10.226-10.226 10.226v.344c1.174.417 2.433.655 3.75.655h42.093c-6.199 0-11.225-5.026-11.225-11.226z" fill="#e8b800"/><g><g><path d="m362.855 66.445 37.789-51.363-10.131-14.01c-1.028-1.422-3.143-1.431-4.183-.017l-45.176 61.403c-1.258 1.709-.037 4.123 2.085 4.123h19.529c.031-.046.055-.092.087-.136z" fill="#0ed290"/></g></g><path d="m86.681 231.225h22.541c1.43 0 2.589 1.159 2.589 2.589v115.218c10.509-4.689 22.132-7.318 34.363-7.318 1.939 0 3.857.089 5.765.218v-108.119c0-1.43 1.159-2.589 2.589-2.589h21.732c2.113 0 3.336-2.394 2.098-4.106l-44.403-61.403c-1.028-1.422-3.143-1.43-4.183-.017l-45.176 61.403c-1.258 1.71-.037 4.124 2.085 4.124z" fill="#fd5426"/><g><g><path d="m143.349 178.707-9.394-12.991c-1.028-1.422-3.143-1.431-4.183-.017l-45.176 61.403c-1.258 1.709-.037 4.123 2.085 4.123h18.029z" fill="#ef4424"/></g></g></g><g><path d="m214.961 146.16h22.541c1.43 0 2.589 1.159 2.589 2.589v178.213h40.127v-178.213c0-1.43 1.159-2.589 2.589-2.589h21.732c2.113 0 3.336-2.394 2.098-4.106l-44.403-61.403c-1.028-1.422-3.143-1.431-4.183-.017l-45.176 61.403c-1.257 1.709-.036 4.123 2.086 4.123z" fill="#01d0fb"/></g><g><g><path d="m271.546 93.529-9.312-12.877c-1.028-1.422-3.143-1.431-4.183-.017l-45.176 61.403c-1.258 1.709-.037 4.123 2.085 4.123h17.863z" fill="#01c0fa"/></g></g><g><g><g><path d="m440.244 405.805h-118.988c-1.317 0-2.576.239-3.75.655v.345c5.639 0 10.226 4.587 10.226 10.225v17.479c0 5.639-4.587 10.226-10.226 10.226v.345c1.174.417 2.433.655 3.75.655h118.988c6.2 0 11.225-5.026 11.225-11.225v-17.479c0-6.2-5.026-11.226-11.225-11.226z" fill="#fac600"/><path d="m352.123 394.58v-17.479c0-6.2 5.026-11.225 11.225-11.225h-42.093c-1.317 0-2.576.239-3.75.655v.345c5.639 0 10.226 4.587 10.226 10.225v17.479c0 5.639-4.587 10.226-10.226 10.226v.344c1.174.417 2.433.655 3.75.655h42.093c-6.199 0-11.225-5.025-11.225-11.225z" fill="#fed402"/><path d="m352.123 434.51v-17.479c0-6.2 5.026-11.225 11.225-11.225h-42.093c-1.317 0-2.576.239-3.75.655v.345c5.639 0 10.226 4.587 10.226 10.225v17.479c0 5.639-4.587 10.226-10.226 10.226v.345c1.174.417 2.433.655 3.75.655h42.093c-6.199-.001-11.225-5.026-11.225-11.226z" fill="#e8b800"/><path d="m352.123 474.44v-17.479c0-6.2 5.026-11.225 11.225-11.225h-42.093c-1.317 0-2.576.239-3.75.655v.345c5.639 0 10.226 4.587 10.226 10.226v17.479c0 5.639-4.587 10.226-10.226 10.226v.345c1.174.417 2.433.656 3.75.656h42.093c-6.199-.003-11.225-5.029-11.225-11.228z" fill="#fed402"/><g><path d="m328.731 354.65v-17.479c0-6.2-5.026-11.225-11.225-11.225h-118.988c-6.2 0-11.225 5.026-11.225 11.225v15.238c25.937 14.48 43.525 42.192 43.525 73.948 0 23.081-9.296 44.024-24.328 59.309h111.016c6.2 0 11.225-5.026 11.225-11.225v-17.479c0-6.2-5.026-11.225-11.225-11.225 6.2 0 11.225-5.026 11.225-11.225v-17.479c0-6.2-5.026-11.225-11.225-11.225 6.2 0 11.225-5.026 11.225-11.225v-17.479c0-6.2-5.026-11.225-11.225-11.225 6.2-.003 11.225-5.029 11.225-11.229z" fill="#fac600"/></g><g><path d="m352.123 314.72v-17.479c0-6.2 5.026-11.225 11.225-11.225h-42.093c-6.2 0-11.225 5.026-11.225 11.225v17.479c0 6.2 5.026 11.225 11.225 11.225h42.093c-6.199.001-11.225-5.025-11.225-11.225z" fill="#fed402"/></g><g><path d="m321.256 286.016h118.988c6.2 0 11.225-5.026 11.225-11.225v-17.479c0-6.2-5.026-11.225-11.225-11.225h-118.988c-6.2 0-11.225 5.026-11.225 11.225v17.479c-.001 6.199 5.025 11.225 11.225 11.225z" fill="#fac600"/></g><g><path d="m352.123 274.791v-17.479c0-6.2 5.026-11.225 11.225-11.225h-42.093c-6.2 0-11.225 5.026-11.225 11.225v17.479c0 6.2 5.026 11.225 11.225 11.225h42.093c-6.199 0-11.225-5.026-11.225-11.225z" fill="#e8b800"/></g><g><path d="m352.123 234.861v-17.479c0-6.2 5.026-11.225 11.225-11.225h-42.093c-6.2 0-11.225 5.026-11.225 11.225v17.479c0 6.2 5.026 11.225 11.225 11.225h42.093c-6.199 0-11.225-5.026-11.225-11.225z" fill="#fed402"/></g></g><g><g><path d="m317.506 445.735h-88.953c-3.605 15.328-11.375 29.061-22.064 39.93h111.016c6.2 0 11.225-5.026 11.225-11.225v-17.479c.001-6.2-5.024-11.226-11.224-11.226z" fill="#e8b800"/></g><g><path d="m229.297 474.44v-17.479c0-6.2 5.026-11.225 11.225-11.225h-11.969c-3.605 15.327-11.375 29.061-22.064 39.93h34.033c-6.199-.001-11.225-5.027-11.225-11.226z" fill="#d7aa02"/></g><g><path d="m317.506 365.876h-112.197c11.018 10.775 19.114 24.518 22.973 39.93h89.224c6.2 0 11.225-5.026 11.225-11.225v-17.479c0-6.201-5.025-11.226-11.225-11.226z" fill="#e8b800"/></g><g><path d="m229.297 394.58v-17.479c0-6.2 5.026-11.225 11.225-11.225h-35.214c11.018 10.775 19.114 24.518 22.973 39.93h12.24c-6.198-.001-11.224-5.026-11.224-11.226z" fill="#d7aa02"/></g><path d="m229.297 354.65v-17.479c0-6.2 5.026-11.225 11.225-11.225h-42.004c-6.2 0-11.225 5.026-11.225 11.225v15.238c6.598 3.683 12.652 8.221 18.016 13.467h35.214c-6.2 0-11.226-5.026-11.226-11.226z" fill="#e8b800"/></g></g><g><g><circle cx="146.174" cy="426.357" fill="#fed402" r="78.143"/></g><g><path d="m100.381 426.357c0-37.611 26.574-69.006 61.968-76.457-5.22-1.099-10.628-1.686-16.175-1.686-43.157 0-78.143 34.986-78.143 78.143s34.986 78.143 78.143 78.143c5.547 0 10.955-.587 16.175-1.686-35.394-7.451-61.968-38.847-61.968-76.457z" fill="#fac600"/></g><g><path d="m146.174 512c-47.224 0-85.643-38.42-85.643-85.644s38.419-85.643 85.643-85.643 85.644 38.419 85.644 85.643-38.42 85.644-85.644 85.644zm0-156.286c-38.953 0-70.643 31.69-70.643 70.643s31.69 70.644 70.643 70.644 70.644-31.69 70.644-70.644c0-38.953-31.691-70.643-70.644-70.643z" fill="#fedf30"/></g><path d="m154.541 418.856h-16.733c-4.212 0-7.639-3.427-7.639-7.64 0-4.212 3.427-7.639 7.639-7.639h29.482c4.142 0 7.5-3.357 7.5-7.5s-3.358-7.5-7.5-7.5h-13.616v-8.038c0-4.143-3.358-7.5-7.5-7.5s-7.5 3.357-7.5 7.5v8.038h-.867c-12.483 0-22.639 10.155-22.639 22.639s10.156 22.64 22.639 22.64h16.733c4.212 0 7.64 3.427 7.64 7.64s-3.427 7.64-7.64 7.64h-29.482c-4.142 0-7.5 3.357-7.5 7.5s3.358 7.5 7.5 7.5h13.615v8.038c0 4.143 3.358 7.5 7.5 7.5s7.5-3.357 7.5-7.5v-8.038h.867c12.483 0 22.64-10.156 22.64-22.64s-10.156-22.64-22.639-22.64z" fill="#e8b800"/></g></g></g></svg>